<svg xmlns="http://www.w3.org/2000/svg" width="754" height="328" viewBox="0 0 754 328">
<rect width="754" height="328" rx="10" fill="#1e1d1b"/>
<circle cx="22" cy="20" r="6" fill="#ff5f57"/><circle cx="42" cy="20" r="6" fill="#febc2e"/><circle cx="62" cy="20" r="6" fill="#28c840"/>
<text x="377" y="25" text-anchor="middle" fill="#e8e6e3" fill-opacity="0.5" font-family="ui-monospace, SFMono-Regular, 'JetBrains Mono', Menlo, Consolas, monospace" font-size="12">agento · 30 дней автора</text>
<g font-family="ui-monospace, SFMono-Regular, 'JetBrains Mono', Menlo, Consolas, monospace">
<text x="24" y="66" fill="#d97757" font-size="14" font-weight="700" xml:space="preserve">Куда ушли деньги</text>
<text x="24" y="86" fill="#a39e95" font-size="13" xml:space="preserve">$8 175 в API-эквиваленте · один пользователь на подписке · не бенчмарк</text>
<clipPath id="cp102"><rect x="24" y="102" width="706" height="24" rx="4"/></clipPath><g clip-path="url(#cp102)"><rect x="24.0" y="102" width="463.9" height="24" fill="#d06a48"/><text x="32" y="119" fill="#fff" font-size="13" font-weight="700" xml:space="preserve">66%</text><rect x="489.9" y="102" width="134.6" height="24" fill="#5b97d6"/><text x="497.93577365552926" y="119" fill="#fff" font-size="13" font-weight="700" xml:space="preserve">19%</text><rect x="626.5" y="102" width="103.4" height="24" fill="#b08a2e"/><text x="634.5472780315957" y="119" fill="#fff" font-size="13" font-weight="700" xml:space="preserve">15%</text></g>
<rect x="24" y="138" width="10" height="10" rx="2" fill="#d06a48"/>
<text x="40" y="148" fill="#e8e6e3" font-size="13" xml:space="preserve">чтение кэша $5 403</text>
<rect x="204.20000000000002" y="138" width="10" height="10" rx="2" fill="#5b97d6"/>
<text x="220.20000000000002" y="148" fill="#e8e6e3" font-size="13" xml:space="preserve">запись кэша $1 568</text>
<rect x="384.40000000000003" y="138" width="10" height="10" rx="2" fill="#b08a2e"/>
<text x="400.40000000000003" y="148" fill="#e8e6e3" font-size="13" xml:space="preserve">output $1 204</text>
<text x="24" y="188" fill="#d97757" font-size="14" font-weight="700" xml:space="preserve">Судья Opus по законченным задачам (мнение, не повторный прогон)</text>
<text x="24" y="210" fill="#e8e6e3" font-size="13" xml:space="preserve">303 из 560 задач на Opus/Fable справились бы дешевле: 54%</text>
<clipPath id="cp224"><rect x="24" y="224" width="706" height="14" rx="4"/></clipPath><g clip-path="url(#cp224)"><rect x="24.0" y="224" width="380.9" height="14" fill="#d06a48"/><rect x="406.9" y="224" width="323.1" height="14" fill="#4a4741"/></g>
<text x="24" y="260" fill="#e8e6e3" font-size="13" xml:space="preserve">против ручной разметки автора судья недооценивает: 41% (n = 34)</text>
<clipPath id="cp274"><rect x="24" y="274" width="706" height="14" rx="4"/></clipPath><g clip-path="url(#cp274)"><rect x="24.0" y="274" width="351.0" height="14" fill="#5b97d6"/><rect x="377.0" y="274" width="289.2" height="14" fill="#d06a48"/><rect x="668.2" y="274" width="61.8" height="14" fill="#b08a2e"/></g>
<rect x="24" y="296" width="10" height="10" rx="2" fill="#5b97d6"/>
<text x="40" y="306" fill="#a39e95" font-size="13" xml:space="preserve">совпало</text>
<rect x="117.30000000000001" y="296" width="10" height="10" rx="2" fill="#d06a48"/>
<text x="133.3" y="306" fill="#a39e95" font-size="13" xml:space="preserve">недооценка</text>
<rect x="234.3" y="296" width="10" height="10" rx="2" fill="#b08a2e"/>
<text x="250.3" y="306" fill="#a39e95" font-size="13" xml:space="preserve">переоценка</text>
</g>
</svg>
